<?xml version="1.0" standalone="no"?>
<!DOCTYPE svg PUBLIC "-//W3C//DTD SVG 20010904//EN"
 "http://www.w3.org/TR/2001/REC-SVG-20010904/DTD/svg10.dtd">
<svg version="1.0" xmlns="http://www.w3.org/2000/svg"
 width="225.000000pt" height="225.000000pt" viewBox="0 0 225.000000 225.000000"
 preserveAspectRatio="xMidYMid meet">

<g transform="translate(0.000000,225.000000) scale(0.100000,-0.100000)"
fill="#fff" stroke="none">
<path d="M445 1778 c-45 -98 -58 -172 -53 -298 4 -97 10 -130 38 -211 l33 -97
-22 -30 c-31 -45 -61 -113 -61 -143 0 -30 -10 -34 -102 -45 -77 -9 -82 -13
-73 -64 6 -36 10 -41 29 -37 67 16 139 19 147 6 22 -35 9 -54 -61 -94 -38 -22
-70 -44 -70 -50 0 -5 9 -25 20 -43 l21 -33 37 22 c20 12 50 31 65 42 16 10 29
18 31 16 1 -2 17 -28 35 -57 70 -111 215 -206 386 -254 70 -19 104 -22 280
-22 176 0 210 3 279 22 173 48 316 142 387 254 18 29 34 54 35 56 1 2 31 -16
68 -39 37 -23 68 -40 70 -38 8 9 36 69 36 76 0 4 -32 26 -70 48 -70 40 -83 59
-61 94 8 13 80 10 147 -6 19 -4 23 1 29 37 9 51 3 56 -74 65 -93 11 -101 14
-101 44 0 30 -30 98 -61 143 l-22 30 33 97 c42 122 53 286 26 391 -22 84 -61
170 -78 170 -31 0 -132 -31 -181 -56 -79 -40 -143 -89 -245 -188 l-93 -90
-124 -1 -125 0 -78 78 c-87 89 -183 162 -259 201 -49 25 -151 56 -181 56 -7 0
-24 -24 -37 -52z m444 -572 c27 -14 51 -53 51 -82 0 -29 -30 -71 -59 -84 -96
-40 -175 77 -102 151 33 32 67 37 110 15z m582 -15 c73 -74 -6 -191 -102 -151
-31 13 -59 55 -59 87 1 28 25 64 51 79 40 22 78 17 110 -15z m-285 -319 c-34
-68 -35 -69 -17 -98 66 -109 217 -85 258 41 6 20 16 30 29 30 25 0 21 -45 -9
-98 -58 -103 -224 -118 -300 -28 l-23 28 -17 -24 c-48 -62 -165 -82 -239 -41
-66 37 -123 163 -73 163 13 0 22 -10 29 -33 13 -46 55 -88 103 -102 35 -11 46
-10 86 8 28 13 54 33 66 53 l20 32 -35 69 -34 68 95 0 95 0 -34 -68z"/>
</g>
</svg>
